<?xml version="1.0" standalone="no"?>
<!DOCTYPE svg PUBLIC "-//W3C//DTD SVG 20010904//EN"
 "http://www.w3.org/TR/2001/REC-SVG-20010904/DTD/svg10.dtd">
<svg version="1.0" xmlns="http://www.w3.org/2000/svg"
 width="700.000000pt" height="700.000000pt" viewBox="0 0 700.000000 700.000000"
 preserveAspectRatio="xMidYMid meet">
<metadata>
Created by potrace 1.11, written by Peter Selinger 2001-2013
</metadata>
<g transform="translate(0.000000,700.000000) scale(0.100000,-0.100000)"
fill="#000000" stroke="none">
<path d="M3737 6963 c-1 0 -56 -4 -122 -7 -66 -4 -147 -11 -180 -16 -33 -5
-78 -11 -100 -14 -111 -14 -342 -67 -445 -102 -25 -9 -52 -17 -60 -19 -43 -9
-251 -94 -365 -150 -152 -73 -277 -145 -390 -224 -114 -79 -159 -113 -294
-226 -57 -47 -262 -254 -322 -325 -106 -125 -195 -250 -316 -445 -29 -47 -153
-295 -177 -355 -15 -36 -31 -73 -36 -82 -6 -10 -10 -23 -10 -29 0 -6 -6 -25
-14 -42 -39 -86 -123 -404 -141 -537 -3 -25 -10 -72 -15 -105 -16 -99 -24
-241 -24 -405 0 -247 12 -363 59 -615 28 -149 104 -397 172 -565 91 -222 255
-507 395 -684 21 -27 38 -53 38 -57 0 -5 -291 -300 -646 -655 -736 -736 -699
-692 -699 -849 1 -104 20 -157 81 -225 120 -132 320 -153 456 -48 21 16 321
313 667 659 l630 631 33 -23 c18 -13 35 -26 38 -29 8 -11 161 -114 247 -168
210 -131 518 -267 753 -333 25 -7 50 -14 55 -15 32 -11 288 -64 329 -69 27 -4
58 -9 70 -11 11 -2 54 -6 96 -10 41 -3 93 -8 115 -10 50 -4 328 -4 375 0 20 2
76 7 125 10 50 4 97 9 105 11 8 2 33 6 55 10 36 5 161 28 210 39 130 28 314
86 466 146 180 71 442 208 534 277 6 5 45 32 88 61 86 59 77 52 202 154 219
180 449 438 607 678 100 154 219 378 273 517 14 37 30 77 35 88 14 33 58 167
71 215 7 25 14 50 15 55 36 117 70 292 90 460 24 207 23 600 -2 729 -2 11 -6
38 -9 61 -3 22 -9 58 -12 80 -4 22 -8 45 -8 50 -11 103 -101 412 -174 593 -89
222 -269 540 -397 702 -168 211 -356 404 -529 543 -498 399 -1107 635 -1735
673 -102 6 -260 11 -263 7z m298 -696 c17 -3 59 -9 95 -13 36 -4 67 -8 70 -9
3 -1 25 -5 50 -9 283 -49 625 -188 880 -359 187 -125 402 -319 536 -487 59
-73 177 -241 205 -292 118 -212 234 -507 269 -683 7 -33 16 -73 21 -90 4 -16
10 -52 13 -80 3 -27 8 -61 10 -75 14 -78 21 -336 12 -455 -5 -64 -17 -174 -22
-198 -2 -12 -7 -38 -10 -57 -32 -211 -140 -518 -255 -725 -301 -541 -763 -930
-1336 -1124 -314 -106 -642 -146 -978 -118 -831 68 -1587 593 -1953 1356 -82
172 -165 420 -187 561 -3 19 -8 46 -10 60 -3 14 -7 36 -10 50 -31 161 -27 594
6 765 6 28 12 61 15 75 63 337 251 737 484 1027 35 43 118 132 184 198 393
391 919 636 1461 681 39 4 71 7 73 9 5 4 348 -3 377 -8z"/>
</g>
</svg>
