<?xml version="1.0" encoding="UTF-8" standalone="no"?>
<!DOCTYPE svg PUBLIC "-//W3C//DTD SVG 1.1//EN" "http://www.w3.org/Graphics/SVG/1.1/DTD/svg11.dtd">
<svg version="1.1" xmlns="http://www.w3.org/2000/svg" xmlns:xlink="http://www.w3.org/1999/xlink" preserveAspectRatio="xMidYMid meet" viewBox="308.1327812170469 162.74369872856823 185.25800000000027 185.25460254286367" width="181.26" height="181.25"><defs><path d="M364.03 290.1C363.74 289.81 363.45 289.55 363.13 289.31C352.14 277.91 345.39 262.4 345.39 245.31C345.39 227.79 352.47 211.94 363.96 200.45C375.46 188.96 391.31 181.87 408.83 181.87C426.34 181.87 442.19 188.96 453.69 200.45C465.18 211.94 472.27 227.79 472.27 245.31C472.27 262.83 465.18 278.68 453.69 290.17C442.19 301.66 426.34 308.75 408.83 308.75C391.73 308.75 376.23 302 364.82 290.99C364.58 290.69 364.32 290.39 364.03 290.1ZM357.91 309.04C371.87 320.19 389.57 326.87 408.83 326.87C431.35 326.87 451.75 317.74 466.5 302.98C481.26 288.23 490.39 267.83 490.39 245.31C490.39 222.79 481.26 202.39 466.5 187.63C451.75 172.88 431.35 163.74 408.83 163.74C386.3 163.74 365.9 172.88 351.15 187.63C336.4 202.39 327.26 222.79 327.26 245.31C327.26 264.57 333.94 282.27 345.1 296.22C341.77 299.55 315.12 326.2 311.79 329.53C308.25 333.07 308.25 338.81 311.79 342.34C315.33 345.88 321.07 345.89 324.61 342.34C331.27 335.68 354.58 312.37 357.91 309.04Z" id="c2iEpNTlwn"></path></defs><g><g><use xlink:href="#c2iEpNTlwn" opacity="1" fill="#9da5b5" fill-opacity="1"></use><g><use xlink:href="#c2iEpNTlwn" opacity="1" fill-opacity="0" stroke="#000000" stroke-width="1" stroke-opacity="0"></use></g></g></g></svg>